<svg xmlns="http://www.w3.org/2000/svg" viewBox="0 0 640 448"><defs><style>.cls-1{fill:#fff;}</style></defs><g id="Calque_2" data-name="Calque 2"><g id="Calque_1-2" data-name="Calque 1"><path class="cls-1" d="M224,128a16,16,0,1,0-16-16A16,16,0,0,0,224,128ZM96,96a16,16,0,1,0,16,16A16,16,0,0,0,96,96ZM474.4,32.12A12.73,12.73,0,0,0,460,44.73c0,6,4.19,10.1,10,12.36C514.2,67.46,544,128,544,160V272a16,16,0,0,1-32,0V180a20,20,0,0,0-28.94-17.89A92.18,92.18,0,0,0,432.55,237C403.7,253.6,384,284.3,384,320v32H224a32,32,0,0,0,0-64H132.4a32.08,32.08,0,0,1-31.08-23.57A161.19,161.19,0,0,1,96,224v-1.6a89.84,89.84,0,0,0,15.7,1.6,79.57,79.57,0,0,0,31.36-6.44L160,210.3l17,7.27A80,80,0,0,0,208.3,224a95.28,95.28,0,0,0,20.83-2.43C241.7,260,277.4,288,320,288l36.56,0a127.13,127.13,0,0,1,39.64-64H320c0-25.73,17.56-31.61,32.31-32a32,32,0,0,0-.31-64,104.9,104.9,0,0,0-49.28,13.06A91.31,91.31,0,0,0,304,128.3v-16c0-1.68-.42-3.25-.5-4.91C313.2,101.9,320,91.9,320,80a16,16,0,0,0-16-16H292.7c-18.1-37.74-56.4-64-101-64H128.3c-44.62,0-82.86,26.26-101,64H16A16,16,0,0,0,0,80c0,11.93,6.82,21.93,16.5,27.43-.08,1.67-.5,3.27-.5,4.87v16a95.16,95.16,0,0,0,16,52.86V224c0,123.7,100.3,224,224,224H416A225.63,225.63,0,0,0,640,221.8C639.9,124.9,567.8,45,474.4,32.12ZM64,128.3v-16A64.42,64.42,0,0,1,128.3,48h63.32A64.46,64.46,0,0,1,256,112.3v16A47.76,47.76,0,0,1,208.3,176a31.4,31.4,0,0,1-12.46-2.56l-33.74-14a25.18,25.18,0,0,0,7.6-1.63L178,154c8.89-3.69,14-11.09,14-19.29V128c0-6.72-6-12.17-13.39-12.17H141.4c-8.3,0-13.4,5.47-13.4,12.17v6.7c0,8.15,5.07,15.6,13.09,19.25l8.31,3.78a25.25,25.25,0,0,0,7.6,1.63l-32.88,14.08A35.44,35.44,0,0,1,111.7,176,47.74,47.74,0,0,1,64,128.3Z"/></g></g></svg>