<?xml version="1.0" encoding="UTF-8"?><svg xmlns="http://www.w3.org/2000/svg" viewBox="0 0 19.76 19.76"><defs><style>.e{fill:#fff;}</style></defs><g id="a"/><g id="b"><g id="c"><path id="d" class="e" d="M19.32,.44h0c-.58-.58-1.53-.58-2.11,0l-7.33,7.33L2.55,.44C1.97-.15,1.02-.15,.44,.44h0c-.58,.58-.58,1.53,0,2.11l7.33,7.33L.44,17.21c-.58,.58-.58,1.53,0,2.11h0c.58,.58,1.53,.58,2.11,0l7.33-7.33,7.33,7.33c.58,.58,1.53,.58,2.11,0h0c.58-.58,.58-1.53,0-2.11l-7.33-7.33,7.33-7.33c.58-.58,.58-1.53,0-2.11Z"/></g></g></svg>